<?xml version="1.0" encoding="utf-8"?>
<!-- Generator: Adobe Illustrator 28.0.0, SVG Export Plug-In . SVG Version: 6.00 Build 0)  -->
<svg version="1.1" id="Layer_1" xmlns="http://www.w3.org/2000/svg" xmlns:xlink="http://www.w3.org/1999/xlink" x="0px" y="0px"
	 viewBox="0 0 493 428" style="enable-background:new 0 0 493 428;" xml:space="preserve">
<style type="text/css">
	.st0{clip-path:url(#SVGID_00000072995376126141852320000000151589639794235553_);}
</style>
<g>
	<defs>
		<rect id="SVGID_1_" x="-12.8" y="-6.6" width="877" height="441"/>
	</defs>
	<clipPath id="SVGID_00000013171652381887926540000006607355974727725984_">
		<use xlink:href="#SVGID_1_"  style="overflow:visible;"/>
	</clipPath>
	<g style="clip-path:url(#SVGID_00000013171652381887926540000006607355974727725984_);">
		<g transform="matrix(1,0,0,1,236,221)">
			<g transform="matrix(1,0,0,1,0,0)">
				<path d="M174-80.6c-28.1-9.8-59.1,5.3-68.9,33.4l-12,34.4l-30.5-88c-7.8-22.4-29-36.4-51.5-36.4c-22.5-0.1-43.7,14-51.4,36.4
					l-30.9,89l-59.6-171.7c-9.8-28.1-40.8-43.2-68.9-33.4c-28.1,9.8-43.2,40.8-33.4,68.9l110.4,318.2c7.8,22.4,29,36.4,51.5,36.4
					c22.5,0.1,43.7-14,51.4-36.4l30.9-89l30.9,89c9.8,28.1,40.8,43.2,68.9,33.4c16.5-5.7,28.4-18.7,33.6-34.1
					c0.1-0.2,0.1-0.4,0.2-0.5l62.7-180.7C217.2-39.9,202.2-70.9,174-80.6L174-80.6z"/>
			</g>
		</g>
		<g transform="matrix(1,0,0,1,452.5,60.25)">
			<g transform="matrix(1,0,0,1,0,0)">
				<path d="M-12.8-59.8c29.4,0,53.2,23.8,53.2,53.2S16.6,46.5-12.8,46.5S-65.9,22.7-65.9-6.6S-42.1-59.8-12.8-59.8z"/>
			</g>
		</g>
	</g>
</g>
</svg>
