<svg xmlns="http://www.w3.org/2000/svg" xmlns:xlink="http://www.w3.org/1999/xlink" viewBox="0 0 1014 883" width="1014" height="883" preserveAspectRatio="xMidYMid meet" style="width: 100%; height: 100%; transform: translate3d(0px, 0px, 0px); content-visibility: visible;"><defs><clipPath id="__lottie_element_2743"><rect width="1014" height="883" x="0" y="0"></rect></clipPath><linearGradient id="__lottie_element_2747" spreadMethod="pad" gradientUnits="userSpaceOnUse" x1="-4016" y1="-2176" x2="2928" y2="2864"><stop offset="0%" stop-color="rgb(70,0,95)"></stop><stop offset="29%" stop-color="rgb(53,9,69)"></stop><stop offset="47%" stop-color="rgb(35,18,43)"></stop><stop offset="81%" stop-color="rgb(57,9,75)"></stop><stop offset="100%" stop-color="rgb(79,0,107)"></stop></linearGradient><linearGradient id="__lottie_element_2754" spreadMethod="pad" gradientUnits="userSpaceOnUse" x1="-89" y1="-62" x2="86" y2="55"><stop offset="0%" stop-color="rgb(66,0,89)"></stop><stop offset="19%" stop-color="rgb(59,5,78)"></stop><stop offset="38%" stop-color="rgb(52,10,67)"></stop><stop offset="75%" stop-color="rgb(61,5,81)"></stop><stop offset="100%" stop-color="rgb(71,0,95)"></stop></linearGradient></defs><g clip-path="url(#__lottie_element_2743)"><g transform="matrix(2,0,0,2,459.5,443)" opacity="1" style="display: block;"><g opacity="1" transform="matrix(1,0,0,1,0,0)"><path fill="url(#__lottie_element_2747)" fill-opacity="1" d=" M186.7899932861328,-73.96499633789062 C158.66000366210938,-83.7249984741211 127.66000366210938,-68.69499969482422 117.9000015258789,-40.564998626708984 C117.9000015258789,-40.564998626708984 105.94999694824219,-6.125 105.94999694824219,-6.125 C105.94999694824219,-6.125 75.41000366210938,-94.125 75.41000366210938,-94.125 C67.6500015258789,-116.49500274658203 46.459999084472656,-130.55499267578125 23.959999084472656,-130.48500061035156 C1.4600000381469727,-130.55499267578125 -19.719999313354492,-116.48500061035156 -27.489999771118164,-94.125 C-27.489999771118164,-94.125 -58.36000061035156,-5.164999961853027 -58.36000061035156,-5.164999961853027 C-58.36000061035156,-5.164999961853027 -117.91999816894531,-176.85499572753906 -117.91999816894531,-176.85499572753906 C-127.68000030517578,-204.98500061035156 -158.67999267578125,-220.01499938964844 -186.80999755859375,-210.2550048828125 C-214.94000244140625,-200.4949951171875 -229.97000122070312,-169.48500061035156 -220.2100067138672,-141.35499572753906 C-220.2100067138672,-141.35499572753906 -109.79000091552734,176.85499572753906 -109.79000091552734,176.85499572753906 C-102.02999877929688,199.22500610351562 -80.83999633789062,213.28500366210938 -58.34000015258789,213.21499633789062 C-35.84000015258789,213.28500366210938 -14.65999984741211,199.21499633789062 -6.889999866485596,176.85499572753906 C-6.889999866485596,176.85499572753906 23.979999542236328,87.8949966430664 23.979999542236328,87.8949966430664 C23.979999542236328,87.8949966430664 54.849998474121094,176.85499572753906 54.849998474121094,176.85499572753906 C64.61000061035156,204.98500061035156 95.61000061035156,220.01499938964844 123.73999786376953,210.2550048828125 C140.1999969482422,204.5449981689453 152.16000366210938,191.55499267578125 157.30999755859375,176.13499450683594 C157.3800048828125,175.9550018310547 157.4499969482422,175.77499389648438 157.52000427246094,175.5850067138672 C157.52000427246094,175.5850067138672 220.2100067138672,-5.074999809265137 220.2100067138672,-5.074999809265137 C229.97000122070312,-33.20500183105469 214.94000244140625,-64.20500183105469 186.80999755859375,-73.96499633789062 C186.80999755859375,-73.96499633789062 186.7899932861328,-73.96499633789062 186.7899932861328,-73.96499633789062z"></path><path stroke-linecap="butt" stroke-linejoin="miter" fill-opacity="0" stroke-miterlimit="4" stroke="rgb(255,255,255)" stroke-opacity="1" stroke-width="0" d=" M186.7899932861328,-73.96499633789062 C158.66000366210938,-83.7249984741211 127.66000366210938,-68.69499969482422 117.9000015258789,-40.564998626708984 C117.9000015258789,-40.564998626708984 105.94999694824219,-6.125 105.94999694824219,-6.125 C105.94999694824219,-6.125 75.41000366210938,-94.125 75.41000366210938,-94.125 C67.6500015258789,-116.49500274658203 46.459999084472656,-130.55499267578125 23.959999084472656,-130.48500061035156 C1.4600000381469727,-130.55499267578125 -19.719999313354492,-116.48500061035156 -27.489999771118164,-94.125 C-27.489999771118164,-94.125 -58.36000061035156,-5.164999961853027 -58.36000061035156,-5.164999961853027 C-58.36000061035156,-5.164999961853027 -117.91999816894531,-176.85499572753906 -117.91999816894531,-176.85499572753906 C-127.68000030517578,-204.98500061035156 -158.67999267578125,-220.01499938964844 -186.80999755859375,-210.2550048828125 C-214.94000244140625,-200.4949951171875 -229.97000122070312,-169.48500061035156 -220.2100067138672,-141.35499572753906 C-220.2100067138672,-141.35499572753906 -109.79000091552734,176.85499572753906 -109.79000091552734,176.85499572753906 C-102.02999877929688,199.22500610351562 -80.83999633789062,213.28500366210938 -58.34000015258789,213.21499633789062 C-35.84000015258789,213.28500366210938 -14.65999984741211,199.21499633789062 -6.889999866485596,176.85499572753906 C-6.889999866485596,176.85499572753906 23.979999542236328,87.8949966430664 23.979999542236328,87.8949966430664 C23.979999542236328,87.8949966430664 54.849998474121094,176.85499572753906 54.849998474121094,176.85499572753906 C64.61000061035156,204.98500061035156 95.61000061035156,220.01499938964844 123.73999786376953,210.2550048828125 C140.1999969482422,204.5449981689453 152.16000366210938,191.55499267578125 157.30999755859375,176.13499450683594 C157.3800048828125,175.9550018310547 157.4499969482422,175.77499389648438 157.52000427246094,175.5850067138672 C157.52000427246094,175.5850067138672 220.2100067138672,-5.074999809265137 220.2100067138672,-5.074999809265137 C229.97000122070312,-33.20500183105469 214.94000244140625,-64.20500183105469 186.80999755859375,-73.96499633789062 C186.80999755859375,-73.96499633789062 186.7899932861328,-73.96499633789062 186.7899932861328,-73.96499633789062z"></path></g></g><g transform="matrix(2,0,0,2,459.5,443)" opacity="1" style="display: block;"><g opacity="1" transform="matrix(1,0,0,1,0,0)"><path stroke-linecap="round" stroke-linejoin="miter" fill-opacity="0" stroke-miterlimit="4" stroke="rgb(69,1,93)" stroke-opacity="1" stroke-width="2" d=" M-202.31500244140625,-74.53199768066406 C-210.07400512695312,-96.89199829101562 -216.4949951171875,-115.39800262451172 -220.48899841308594,-126.90699768066406"></path></g></g><g transform="matrix(2,0,0,2,459.5,443)" opacity="1" style="display: block;"><g opacity="1" transform="matrix(1,0,0,1,0,0)"><path stroke-linecap="round" stroke-linejoin="miter" fill-opacity="0" stroke-miterlimit="4" stroke="rgb(69,1,93)" stroke-opacity="1" stroke-width="2" d=" M-37.077999114990234,-81.74299621582031 C-42.39699935913086,-66.41600036621094 -50.7599983215332,-42.31700134277344 -55.25400161743164,-29.36400032043457"></path></g></g><g transform="matrix(2,0,0,2,892.5,121.5)" opacity="1" style="display: block;"><g opacity="1" transform="matrix(1,0,0,1,0,0)"><path fill="url(#__lottie_element_2754)" fill-opacity="1" d=" M0,-53.189998626708984 C29.375999450683594,-53.189998626708984 53.189998626708984,-29.375999450683594 53.189998626708984,0 C53.189998626708984,29.375999450683594 29.375999450683594,53.189998626708984 0,53.189998626708984 C-29.375999450683594,53.189998626708984 -53.189998626708984,29.375999450683594 -53.189998626708984,0 C-53.189998626708984,-29.375999450683594 -29.375999450683594,-53.189998626708984 0,-53.189998626708984z"></path><path stroke-linecap="butt" stroke-linejoin="miter" fill-opacity="0" stroke-miterlimit="4" stroke="rgb(255,255,255)" stroke-opacity="1" stroke-width="0" d=" M0,-53.189998626708984 C29.375999450683594,-53.189998626708984 53.189998626708984,-29.375999450683594 53.189998626708984,0 C53.189998626708984,29.375999450683594 29.375999450683594,53.189998626708984 0,53.189998626708984 C-29.375999450683594,53.189998626708984 -53.189998626708984,29.375999450683594 -53.189998626708984,0 C-53.189998626708984,-29.375999450683594 -29.375999450683594,-53.189998626708984 0,-53.189998626708984z"></path></g></g><g transform="matrix(2,0,0,2,892.5,121.5)" opacity="1" style="display: block;"><g opacity="1" transform="matrix(1,0,0,1,0,0)"><path stroke-linecap="round" stroke-linejoin="round" fill-opacity="0" stroke="rgb(69,1,93)" stroke-opacity="1" stroke-width="2" d=" M29.575000762939453,51.257999420166016 C25.743999481201172,53.47800064086914 21.642000198364258,55.279998779296875 17.332000732421875,56.60200119018555"></path></g></g><g transform="matrix(2,0,0,2,892.5,121.5)" opacity="1" style="display: none;"><g opacity="1" transform="matrix(1,0,0,1,0,0)"><path stroke-linecap="round" stroke-linejoin="round" fill-opacity="0" stroke="rgb(69,1,93)" stroke-opacity="1" stroke-width="2" d="M0 0"></path></g></g></g></svg>