<svg xmlns="http://www.w3.org/2000/svg" xmlns:xlink="http://www.w3.org/1999/xlink" viewBox="0 0 1014 883" width="1014" height="883" preserveAspectRatio="xMidYMid meet" style="width: 100%; height: 100%; transform: translate3d(0px, 0px, 0px); content-visibility: visible;"><defs><clipPath id="__lottie_element_4346"><rect width="1014" height="883" x="0" y="0"></rect></clipPath></defs><g clip-path="url(#__lottie_element_4346)"><g transform="matrix(2,0,0,2,459.5,443)" opacity="1" style="display: block;"><g opacity="1" transform="matrix(1,0,0,1,0,0)"><path fill="rgb(0,0,0)" fill-opacity="1" d=" M186.7899932861328,-73.96499633789062 C158.66000366210938,-83.7249984741211 127.66000366210938,-68.69499969482422 117.9000015258789,-40.564998626708984 C117.9000015258789,-40.564998626708984 105.94999694824219,-6.125 105.94999694824219,-6.125 C105.94999694824219,-6.125 75.41000366210938,-94.125 75.41000366210938,-94.125 C67.6500015258789,-116.49500274658203 46.459999084472656,-130.55499267578125 23.959999084472656,-130.48500061035156 C1.4600000381469727,-130.55499267578125 -19.719999313354492,-116.48500061035156 -27.489999771118164,-94.125 C-27.489999771118164,-94.125 -58.36000061035156,-5.164999961853027 -58.36000061035156,-5.164999961853027 C-58.36000061035156,-5.164999961853027 -117.91999816894531,-176.85499572753906 -117.91999816894531,-176.85499572753906 C-127.68000030517578,-204.98500061035156 -158.67999267578125,-220.01499938964844 -186.80999755859375,-210.2550048828125 C-214.94000244140625,-200.4949951171875 -229.97000122070312,-169.48500061035156 -220.2100067138672,-141.35499572753906 C-220.2100067138672,-141.35499572753906 -109.79000091552734,176.85499572753906 -109.79000091552734,176.85499572753906 C-102.02999877929688,199.22500610351562 -80.83999633789062,213.28500366210938 -58.34000015258789,213.21499633789062 C-35.84000015258789,213.28500366210938 -14.65999984741211,199.21499633789062 -6.889999866485596,176.85499572753906 C-6.889999866485596,176.85499572753906 23.979999542236328,87.8949966430664 23.979999542236328,87.8949966430664 C23.979999542236328,87.8949966430664 54.849998474121094,176.85499572753906 54.849998474121094,176.85499572753906 C64.61000061035156,204.98500061035156 95.61000061035156,220.01499938964844 123.73999786376953,210.2550048828125 C140.1999969482422,204.5449981689453 152.16000366210938,191.55499267578125 157.30999755859375,176.13499450683594 C157.3800048828125,175.9550018310547 157.4499969482422,175.77499389648438 157.52000427246094,175.5850067138672 C157.52000427246094,175.5850067138672 220.2100067138672,-5.074999809265137 220.2100067138672,-5.074999809265137 C229.97000122070312,-33.20500183105469 214.94000244140625,-64.20500183105469 186.80999755859375,-73.96499633789062 C186.80999755859375,-73.96499633789062 186.7899932861328,-73.96499633789062 186.7899932861328,-73.96499633789062z"></path></g></g><g transform="matrix(2,0,0,2,892.5,121.5)" opacity="1" style="display: block;"><g opacity="1" transform="matrix(1,0,0,1,0,0)"><path fill="rgb(0,0,0)" fill-opacity="1" d=" M0,-53.189998626708984 C29.375999450683594,-53.189998626708984 53.189998626708984,-29.375999450683594 53.189998626708984,0 C53.189998626708984,29.375999450683594 29.375999450683594,53.189998626708984 0,53.189998626708984 C-29.375999450683594,53.189998626708984 -53.189998626708984,29.375999450683594 -53.189998626708984,0 C-53.189998626708984,-29.375999450683594 -29.375999450683594,-53.189998626708984 0,-53.189998626708984z"></path></g></g></g></svg>