<?xml version="1.0" encoding="utf-8"?>
<!-- Generator: Adobe Illustrator 28.0.0, SVG Export Plug-In . SVG Version: 6.00 Build 0)  -->
<svg version="1.1" id="Layer_1" xmlns="http://www.w3.org/2000/svg" xmlns:xlink="http://www.w3.org/1999/xlink" x="0px" y="0px"
	 viewBox="0 0 1014 883" style="enable-background:new 0 0 1014 883;" xml:space="preserve">
<style type="text/css">
	.st0{clip-path:url(#SVGID_00000172424720577805960060000005539390755661421209_);}
	.st1{fill:url(#SVGID_00000022528288217075400170000014330156979850366373_);}
	.st2{fill-opacity:0;}
	.st3{fill-opacity:0;stroke:#45015D;stroke-width:4;stroke-linecap:round;stroke-miterlimit:8;}
	.st4{display:none;}
	.st5{display:inline;}
	.st6{fill:url(#SVGID_00000072959755476467641510000001515319448795655048_);}
	.st7{fill-opacity:0;stroke:#45015D;stroke-width:4;stroke-linecap:round;stroke-linejoin:round;stroke-miterlimit:8;}
</style>
<g>
	<defs>
		<rect id="SVGID_1_" width="1014" height="883"/>
	</defs>
	<clipPath id="SVGID_00000124855011579473078440000015714407312024810942_">
		<use xlink:href="#SVGID_1_"  style="overflow:visible;"/>
	</clipPath>
	<g style="clip-path:url(#SVGID_00000124855011579473078440000015714407312024810942_);">
		<g transform="matrix(2,0,0,2,459.5,443)">
			<g transform="matrix(1,0,0,1,0,0)">
				
					<linearGradient id="SVGID_00000167374363255226461830000015484975731665546650_" gradientUnits="userSpaceOnUse" x1="-2181.8008" y1="1565.7744" x2="4762.1997" y2="-3474.2256" gradientTransform="matrix(2 0 0 -2 685.5 490)">
					<stop  offset="0" style="stop-color:#46005F"/>
					<stop  offset="0.29" style="stop-color:#350945"/>
					<stop  offset="0.47" style="stop-color:#23122B"/>
					<stop  offset="0.74" style="stop-color:#39094B"/>
					<stop  offset="1" style="stop-color:#4F006B"/>
				</linearGradient>
				<path style="fill:url(#SVGID_00000167374363255226461830000015484975731665546650_);" d="M186.8-74
					c-28.1-9.8-59.1,5.3-68.9,33.4l-12,34.4l-30.5-88c-7.8-22.4-29-36.4-51.5-36.4c-22.5-0.1-43.7,14-51.4,36.4l-30.9,89
					l-59.6-171.7c-9.8-28.1-40.8-43.2-68.9-33.4c-28.1,9.8-43.2,40.8-33.4,68.9l110.4,318.2c7.8,22.4,29,36.4,51.5,36.4
					c22.5,0.1,43.7-14,51.5-36.4l30.9-89l30.9,89c9.8,28.1,40.8,43.2,68.9,33.4c16.5-5.7,28.4-18.7,33.6-34.1
					c0.1-0.2,0.1-0.4,0.2-0.5L220.2-5.1C230-33.2,214.9-64.2,186.8-74L186.8-74z"/>
				<path class="st2" d="M186.8-74c-28.1-9.8-59.1,5.3-68.9,33.4l-12,34.4l-30.5-88c-7.8-22.4-29-36.4-51.5-36.4
					c-22.5-0.1-43.7,14-51.4,36.4l-30.9,89l-59.6-171.7c-9.8-28.1-40.8-43.2-68.9-33.4c-28.1,9.8-43.2,40.8-33.4,68.9l110.4,318.2
					c7.8,22.4,29,36.4,51.5,36.4c22.5,0.1,43.7-14,51.5-36.4l30.9-89l30.9,89c9.8,28.1,40.8,43.2,68.9,33.4
					c16.5-5.7,28.4-18.7,33.6-34.1c0.1-0.2,0.1-0.4,0.2-0.5L220.2-5.1C230-33.2,214.9-64.2,186.8-74L186.8-74z"/>
			</g>
		</g>
		<g transform="matrix(2,0,0,2,459.5,443)">
			<g transform="matrix(1,0,0,1,0,0)">
				<path class="st3" d="M0,0"/>
			</g>
		</g>
		<g transform="matrix(2,0,0,2,459.5,443)" class="st4">
			<g transform="matrix(1,0,0,1,0,0)" class="st5">
				<path class="st3" d="M0,0"/>
			</g>
		</g>
		<g transform="matrix(2,0,0,2,892.5,121.5)">
			<g transform="matrix(1,0,0,1,0,0)">
				
					<linearGradient id="SVGID_00000032611000233331076390000011279328657486956442_" gradientUnits="userSpaceOnUse" x1="-604.3269" y1="435.8871" x2="-429.3269" y2="318.8871" gradientTransform="matrix(2 0 0 -2 1118.5 811.5)">
					<stop  offset="0" style="stop-color:#46005F"/>
					<stop  offset="0.29" style="stop-color:#350945"/>
					<stop  offset="0.47" style="stop-color:#23122B"/>
					<stop  offset="0.74" style="stop-color:#39094B"/>
					<stop  offset="1" style="stop-color:#4F006B"/>
				</linearGradient>
				<path style="fill:url(#SVGID_00000032611000233331076390000011279328657486956442_);" d="M0-53.2c29.4,0,53.2,23.8,53.2,53.2
					S29.4,53.2,0,53.2S-53.2,29.4-53.2,0S-29.4-53.2,0-53.2z"/>
				<path class="st2" d="M0-53.2c29.4,0,53.2,23.8,53.2,53.2S29.4,53.2,0,53.2S-53.2,29.4-53.2,0S-29.4-53.2,0-53.2z"/>
			</g>
		</g>
		<g transform="matrix(2,0,0,2,892.5,121.5)" class="st4">
			<g transform="matrix(1,0,0,1,0,0)" class="st5">
				<path class="st7" d="M0,0"/>
			</g>
		</g>
		<g transform="matrix(2,0,0,2,892.5,121.5)" class="st4">
			<g transform="matrix(1,0,0,1,0,0)" class="st5">
				<path class="st7" d="M-30.2-50.9c-0.1,0-0.1,0.1-0.2,0.1"/>
			</g>
		</g>
	</g>
</g>
</svg>
