<svg xmlns="http://www.w3.org/2000/svg" xmlns:xlink="http://www.w3.org/1999/xlink" viewBox="0 0 1014 883" width="1014" height="883" preserveAspectRatio="xMidYMid meet" style="width: 100%; height: 100%; transform: translate3d(0px, 0px, 0px); content-visibility: visible;"><defs><clipPath id="__lottie_element_7242"><rect width="1014" height="883" x="0" y="0"></rect></clipPath><linearGradient id="__lottie_element_7246" spreadMethod="pad" gradientUnits="userSpaceOnUse" x1="-1004" y1="-544" x2="732" y2="716"><stop offset="0%" stop-color="rgb(70,0,95)"></stop><stop offset="29%" stop-color="rgb(53,9,69)"></stop><stop offset="47%" stop-color="rgb(35,18,43)"></stop><stop offset="81%" stop-color="rgb(57,9,75)"></stop><stop offset="100%" stop-color="rgb(79,0,107)"></stop></linearGradient><linearGradient id="__lottie_element_7253" spreadMethod="pad" gradientUnits="userSpaceOnUse" x1="-89" y1="-62" x2="86" y2="55"><stop offset="0%" stop-color="rgb(66,0,89)"></stop><stop offset="19%" stop-color="rgb(59,5,78)"></stop><stop offset="38%" stop-color="rgb(52,10,67)"></stop><stop offset="75%" stop-color="rgb(61,5,81)"></stop><stop offset="100%" stop-color="rgb(71,0,95)"></stop></linearGradient></defs><g clip-path="url(#__lottie_element_7242)"><g transform="matrix(2,0,0,2,459.5,443)" opacity="1" style="display: block;"><g opacity="1" transform="matrix(1,0,0,1,0,0)"><path fill="url(#__lottie_element_7246)" fill-opacity="1" d=" M186.7899932861328,-73.96499633789062 C158.66000366210938,-83.7249984741211 127.66000366210938,-68.69499969482422 117.9000015258789,-40.564998626708984 C117.9000015258789,-40.564998626708984 105.94999694824219,-6.125 105.94999694824219,-6.125 C105.94999694824219,-6.125 75.41000366210938,-94.125 75.41000366210938,-94.125 C67.6500015258789,-116.49500274658203 46.459999084472656,-130.55499267578125 23.959999084472656,-130.48500061035156 C1.4600000381469727,-130.55499267578125 -19.719999313354492,-116.48500061035156 -27.489999771118164,-94.125 C-27.489999771118164,-94.125 -58.36000061035156,-5.164999961853027 -58.36000061035156,-5.164999961853027 C-58.36000061035156,-5.164999961853027 -117.91999816894531,-176.85499572753906 -117.91999816894531,-176.85499572753906 C-127.68000030517578,-204.98500061035156 -158.67999267578125,-220.01499938964844 -186.80999755859375,-210.2550048828125 C-214.94000244140625,-200.4949951171875 -229.97000122070312,-169.48500061035156 -220.2100067138672,-141.35499572753906 C-220.2100067138672,-141.35499572753906 -109.79000091552734,176.85499572753906 -109.79000091552734,176.85499572753906 C-102.02999877929688,199.22500610351562 -80.83999633789062,213.28500366210938 -58.34000015258789,213.21499633789062 C-35.84000015258789,213.28500366210938 -14.65999984741211,199.21499633789062 -6.889999866485596,176.85499572753906 C-6.889999866485596,176.85499572753906 23.979999542236328,87.8949966430664 23.979999542236328,87.8949966430664 C23.979999542236328,87.8949966430664 54.849998474121094,176.85499572753906 54.849998474121094,176.85499572753906 C64.61000061035156,204.98500061035156 95.61000061035156,220.01499938964844 123.73999786376953,210.2550048828125 C140.1999969482422,204.5449981689453 152.16000366210938,191.55499267578125 157.30999755859375,176.13499450683594 C157.3800048828125,175.9550018310547 157.4499969482422,175.77499389648438 157.52000427246094,175.5850067138672 C157.52000427246094,175.5850067138672 220.2100067138672,-5.074999809265137 220.2100067138672,-5.074999809265137 C229.97000122070312,-33.20500183105469 214.94000244140625,-64.20500183105469 186.80999755859375,-73.96499633789062 C186.80999755859375,-73.96499633789062 186.7899932861328,-73.96499633789062 186.7899932861328,-73.96499633789062z"></path><path stroke-linecap="butt" stroke-linejoin="miter" fill-opacity="0" stroke-miterlimit="4" stroke="rgb(255,255,255)" stroke-opacity="1" stroke-width="0" d=" M186.7899932861328,-73.96499633789062 C158.66000366210938,-83.7249984741211 127.66000366210938,-68.69499969482422 117.9000015258789,-40.564998626708984 C117.9000015258789,-40.564998626708984 105.94999694824219,-6.125 105.94999694824219,-6.125 C105.94999694824219,-6.125 75.41000366210938,-94.125 75.41000366210938,-94.125 C67.6500015258789,-116.49500274658203 46.459999084472656,-130.55499267578125 23.959999084472656,-130.48500061035156 C1.4600000381469727,-130.55499267578125 -19.719999313354492,-116.48500061035156 -27.489999771118164,-94.125 C-27.489999771118164,-94.125 -58.36000061035156,-5.164999961853027 -58.36000061035156,-5.164999961853027 C-58.36000061035156,-5.164999961853027 -117.91999816894531,-176.85499572753906 -117.91999816894531,-176.85499572753906 C-127.68000030517578,-204.98500061035156 -158.67999267578125,-220.01499938964844 -186.80999755859375,-210.2550048828125 C-214.94000244140625,-200.4949951171875 -229.97000122070312,-169.48500061035156 -220.2100067138672,-141.35499572753906 C-220.2100067138672,-141.35499572753906 -109.79000091552734,176.85499572753906 -109.79000091552734,176.85499572753906 C-102.02999877929688,199.22500610351562 -80.83999633789062,213.28500366210938 -58.34000015258789,213.21499633789062 C-35.84000015258789,213.28500366210938 -14.65999984741211,199.21499633789062 -6.889999866485596,176.85499572753906 C-6.889999866485596,176.85499572753906 23.979999542236328,87.8949966430664 23.979999542236328,87.8949966430664 C23.979999542236328,87.8949966430664 54.849998474121094,176.85499572753906 54.849998474121094,176.85499572753906 C64.61000061035156,204.98500061035156 95.61000061035156,220.01499938964844 123.73999786376953,210.2550048828125 C140.1999969482422,204.5449981689453 152.16000366210938,191.55499267578125 157.30999755859375,176.13499450683594 C157.3800048828125,175.9550018310547 157.4499969482422,175.77499389648438 157.52000427246094,175.5850067138672 C157.52000427246094,175.5850067138672 220.2100067138672,-5.074999809265137 220.2100067138672,-5.074999809265137 C229.97000122070312,-33.20500183105469 214.94000244140625,-64.20500183105469 186.80999755859375,-73.96499633789062 C186.80999755859375,-73.96499633789062 186.7899932861328,-73.96499633789062 186.7899932861328,-73.96499633789062z"></path></g><g opacity="1" transform="matrix(1,0,0,1,0,0)"><path stroke-linecap="butt" stroke-linejoin="miter" fill-opacity="0" stroke-miterlimit="4" stroke="rgb(255,255,255)" stroke-opacity="0" stroke-width="4" d=" M106.12100219726562,210.23199462890625 C84.27999877929688,210.23199462890625 64.81500244140625,196.4239959716797 57.685001373291016,175.8719940185547 C57.685001373291016,175.8719940185547 23.979999542236328,78.74299621582031 23.979999542236328,78.74299621582031 C23.979999542236328,78.74299621582031 -9.725000381469727,175.8719940185547 -9.725000381469727,175.8719940185547 C-16.863000869750977,196.41299438476562 -36.332000732421875,210.21499633789062 -58.172000885009766,210.21499633789062 C-58.172000885009766,210.21499633789062 -58.507999420166016,210.21499633789062 -58.507999420166016,210.21499633789062 C-80.36000061035156,210.21499633789062 -99.83000183105469,196.41299438476562 -106.95600128173828,175.8719940185547 C-106.95600128173828,175.8719940185547 -217.375,-142.33799743652344 -217.375,-142.33799743652344 C-221.83299255371094,-155.18600463867188 -220.9969940185547,-169.0540008544922 -215.0189971923828,-181.38499450683594 C-209.04100036621094,-193.71800231933594 -198.6739959716797,-202.96299743652344 -185.82699584960938,-207.4199981689453 C-180.44900512695312,-209.28599548339844 -174.8509979248047,-210.23300170898438 -169.19000244140625,-210.23300170898438 C-147.35000610351562,-210.23300170898438 -127.88500213623047,-196.4250030517578 -120.75399780273438,-175.8719940185547 C-120.75399780273438,-175.8719940185547 -58.36000061035156,3.986999988555908 -58.36000061035156,3.986999988555908 C-58.36000061035156,3.986999988555908 -24.655000686645508,-93.14199829101562 -24.655000686645508,-93.14199829101562 C-17.517000198364258,-113.68399810791016 1.9520000219345093,-127.48500061035156 23.79199981689453,-127.48500061035156 C23.79199981689453,-127.48500061035156 24.128000259399414,-127.48500061035156 24.128000259399414,-127.48500061035156 C45.97999954223633,-127.48500061035156 65.44999694824219,-113.68399810791016 72.57599639892578,-93.14199829101562 C72.57599639892578,-93.14199829101562 105.94999694824219,3.0260000228881836 105.94999694824219,3.0260000228881836 C105.94999694824219,3.0260000228881836 120.73400115966797,-39.582000732421875 120.73400115966797,-39.582000732421875 C127.86499786376953,-60.1349983215332 147.3300018310547,-73.94300079345703 169.1699981689453,-73.94300079345703 C174.83099365234375,-73.94300079345703 180.4290008544922,-72.99600219726562 185.8070068359375,-71.12999725341797 C185.8070068359375,-71.12999725341797 186.28500366210938,-70.96499633789062 186.28500366210938,-70.96499633789062 C186.28500366210938,-70.96499633789062 186.2969970703125,-70.96499633789062 186.2969970703125,-70.96499633789062 C198.92599487304688,-66.4469985961914 209.11900329589844,-57.27299880981445 215.02000427246094,-45.099998474121094 C220.9969940185547,-32.77199935913086 221.83299255371094,-18.906999588012695 217.37600708007812,-6.058000087738037 C217.37600708007812,-6.058000087738037 154.68600463867188,174.6020050048828 154.68600463867188,174.6020050048828 C154.68600463867188,174.6020050048828 154.49200439453125,175.1060028076172 154.49200439453125,175.1060028076172 C149.36599731445312,190.44900512695312 137.80999755859375,202.19900512695312 122.75700378417969,207.42100524902344 C117.38099670410156,209.28599548339844 111.78299713134766,210.23199462890625 106.12100219726562,210.23199462890625z"></path></g></g><g transform="matrix(2,0,0,2,459.5,443)" opacity="1" style="display: block;"><g opacity="1" transform="matrix(1,0,0,1,0,0)"><path stroke-linecap="round" stroke-linejoin="miter" fill-opacity="0" stroke-miterlimit="4" stroke="rgb(69,1,93)" stroke-opacity="1" stroke-width="2" d="M0 0"></path></g></g><g transform="matrix(2,0,0,2,892.5,121.5)" opacity="1" style="display: block;"><g opacity="1" transform="matrix(1,0,0,1,0,0)"><path fill="url(#__lottie_element_7253)" fill-opacity="1" d=" M0,-53.189998626708984 C29.375999450683594,-53.189998626708984 53.189998626708984,-29.375999450683594 53.189998626708984,0 C53.189998626708984,29.375999450683594 29.375999450683594,53.189998626708984 0,53.189998626708984 C-29.375999450683594,53.189998626708984 -53.189998626708984,29.375999450683594 -53.189998626708984,0 C-53.189998626708984,-29.375999450683594 -29.375999450683594,-53.189998626708984 0,-53.189998626708984z"></path><path stroke-linecap="butt" stroke-linejoin="miter" fill-opacity="0" stroke-miterlimit="4" stroke="rgb(255,255,255)" stroke-opacity="1" stroke-width="0" d=" M0,-53.189998626708984 C29.375999450683594,-53.189998626708984 53.189998626708984,-29.375999450683594 53.189998626708984,0 C53.189998626708984,29.375999450683594 29.375999450683594,53.189998626708984 0,53.189998626708984 C-29.375999450683594,53.189998626708984 -53.189998626708984,29.375999450683594 -53.189998626708984,0 C-53.189998626708984,-29.375999450683594 -29.375999450683594,-53.189998626708984 0,-53.189998626708984z"></path></g></g></g></svg>